<svg width="24" height="21" viewBox="0 0 24 21" fill="none" xmlns="http://www.w3.org/2000/svg">
<path d="M15.9999 6.50003C17.3329 8.27803 17.3329 11.722 15.9999 13.5M18.9999 3.00003C22.9879 6.80803 23.0119 13.217 18.9999 17M1.99994 12.959V7.04003C1.99994 6.46603 2.44794 6.00003 2.99994 6.00003H6.58594C6.71827 5.99956 6.84914 5.97229 6.97065 5.91987C7.09216 5.86745 7.20179 5.79097 7.29294 5.69503L10.2929 2.30703C10.9229 1.65103 11.9999 2.11603 11.9999 3.04303V16.957C11.9999 17.891 10.9099 18.352 10.2839 17.683L7.29394 14.314C7.20253 14.2154 7.09179 14.1366 6.96861 14.0825C6.84543 14.0285 6.71244 14.0004 6.57794 14H2.99994C2.44794 14 1.99994 13.534 1.99994 12.959Z" stroke="white" stroke-width="3" stroke-linecap="round" stroke-linejoin="round"/>
<rect x="3.06066" y="18.2178" width="24.2639" height="1.5" rx="0.75" transform="rotate(-45 3.06066 18.2178)" fill="white" stroke="white" stroke-width="1.5"/>
</svg>
