<svg width="65" height="60" viewBox="0 0 65 60" fill="none" xmlns="http://www.w3.org/2000/svg">
<path d="M23.6364 30.4658C25.2023 30.8923 26.1478 32.5679 25.7341 34.1826L21.8932 48.8976C21.4796 50.5428 19.8546 51.4872 18.2887 51.0607C17.9129 50.9636 17.5603 50.7888 17.2521 50.5469C16.944 50.3049 16.6867 50.0009 16.496 49.6532C16.3054 49.3056 16.1852 48.9216 16.1429 48.5246C16.1006 48.1276 16.1371 47.7259 16.25 47.3439L20.0318 32.6289C20.4455 30.9837 22.0705 30.0393 23.6364 30.4658ZM35.4546 30.4658C37.0205 30.8923 37.9659 32.5679 37.5523 34.1826L31.4364 57.7327C31.0227 59.4083 29.3977 60.3223 27.8023 59.8958C26.2364 59.4083 25.2909 57.7936 25.7046 56.1485L31.85 32.6289C32.2637 30.9837 33.8887 30.0393 35.4546 30.4658ZM47.2727 30.4658C48.8386 30.8923 49.7841 32.5679 49.3705 34.1826L45.5296 48.8976C45.1159 50.5428 43.4909 51.4872 41.925 51.0607C41.5493 50.9636 41.1966 50.7888 40.8885 50.5469C40.5803 50.3049 40.3231 50.0009 40.1324 49.6532C39.9417 49.3056 39.8216 48.9216 39.7793 48.5246C39.737 48.1276 39.7734 47.7259 39.8864 47.3439L43.6682 32.6289C44.0818 30.9837 45.7068 30.0393 47.2727 30.4658ZM47.2727 24.3726V21.3261C47.2727 17.286 45.7163 13.4115 42.9459 10.5548C40.1755 7.69805 36.418 6.09316 32.5 6.09316C25.1137 6.09316 19.0568 11.6379 17.9046 18.8583C16.9296 18.4927 15.8659 18.2795 14.7728 18.2795C12.422 18.2795 10.1675 19.2424 8.50522 20.9564C6.84297 22.6705 5.90913 24.9952 5.90913 27.4192C5.90913 30.8009 7.68185 33.7561 10.3409 35.3403V35.3099C11.8182 36.1629 12.2318 38.0822 11.4341 39.4837C10.6068 40.9156 8.86367 41.4335 7.3864 40.5804V40.6109C5.13667 39.2787 3.26852 37.3569 1.97135 35.0402C0.67417 32.7235 -0.00591453 30.0943 3.87515e-05 27.4192C3.87515e-05 23.3792 1.55645 19.5047 4.32687 16.6479C7.09729 13.7912 10.8548 12.1863 14.7728 12.1863C17.7273 5.02686 24.5228 0 32.5 0C42.6341 0 50.9364 8.1039 51.7046 18.3709L53.1818 18.2795C56.3162 18.2795 59.3222 19.5634 61.5385 21.8488C63.7549 24.1341 65 27.2338 65 30.4658C65 35.0357 62.6364 38.9048 59.0909 41.007C57.6136 41.8295 55.8705 41.3421 55.0432 39.8797C54.2455 38.4174 54.6591 36.559 56.1364 35.7059V35.7364C57.9091 34.7005 59.0909 32.7203 59.0909 30.4658C59.0909 28.8498 58.4683 27.3 57.3602 26.1573C56.252 25.0146 54.749 24.3726 53.1818 24.3726H47.2727Z" fill="white"/>
</svg>
