<svg width="18" height="22" viewBox="0 0 18 22" fill="none" xmlns="http://www.w3.org/2000/svg">
<path fillRule="evenodd" clipRule="evenodd" d="M3 2C2.44772 2 2 2.44772 2 3V19C2 19.5523 2.44772 20 3 20H15C15.5523 20 16 19.5523 16 19V5.82843C16 5.56321 15.8946 5.30886 15.7071 5.12132L12.8787 2.29289C12.6911 2.10536 12.4368 2 12.1716 2H3ZM0 3C0 1.34315 1.34315 0 3 0H12.1716C12.9672 0 13.7303 0.316071 14.2929 0.87868L17.1213 3.70711C17.6839 4.26972 18 5.03278 18 5.82843V19C18 20.6569 16.6569 22 15 22H3C1.34315 22 0 20.6569 0 19V3Z" fill="#000C1E"/>
</svg>
