<svg width="63" height="60" viewBox="0 0 63 60" fill="none" xmlns="http://www.w3.org/2000/svg">
<path d="M8.59091 41.8957C8.19 40.4228 9.10637 38.868 10.6814 38.4862L17.1818 36.8224L12.3995 32.3491C11.2541 31.2581 11.2541 29.4852 12.3995 28.3669C13.545 27.2758 15.4636 27.2758 16.5805 28.3669L21.3341 32.8674L23.0236 26.7303C23.4245 25.2029 25.0568 24.33 26.6032 24.7392C28.2068 25.121 29.1232 26.6758 28.6364 28.1759L26.9755 34.313L33.4186 32.731C33.7889 32.6196 34.1793 32.5819 34.5655 32.6202C34.9518 32.6585 35.3256 32.7719 35.6639 32.9535C36.0023 33.135 36.2978 33.3809 36.5322 33.6757C36.7667 33.9706 36.935 34.3082 37.0268 34.6676C37.4564 36.1405 36.54 37.6952 34.9364 38.077L28.4932 39.6863L33.2182 44.2141C34.3636 45.2779 34.3636 47.1053 33.2182 48.1964C32.0727 49.2874 30.1827 49.2874 29.0659 48.1964L24.3409 43.6413L22.5941 49.8329C22.1932 51.3604 20.5609 52.2059 19.0145 51.8241C17.4109 51.4422 16.5232 49.8875 16.9241 48.3873L18.6136 42.2775L12.1991 43.8868C10.6241 44.2687 8.99182 43.4231 8.59091 41.8957ZM4.42121e-06 24.5482C4.42121e-06 20.9312 1.50852 17.4624 4.1937 14.9048C6.87888 12.3472 10.5208 10.9103 14.3182 10.9103C17.1818 4.50051 23.7682 0 31.5 0C41.3223 0 49.3691 7.25537 50.1136 16.4473L51.5455 16.3655C54.5834 16.3655 57.4969 17.515 59.645 19.5611C61.7932 21.6071 63 24.3822 63 27.2758C63 30.1694 61.7932 32.9445 59.645 34.9906C57.4969 37.0367 54.5834 38.1861 51.5455 38.1861C50.786 38.1861 50.0576 37.8988 49.5206 37.3873C48.9835 36.8757 48.6818 36.182 48.6818 35.4586C48.6818 34.7352 48.9835 34.0414 49.5206 33.5299C50.0576 33.0184 50.786 32.731 51.5455 32.731C53.0644 32.731 54.5212 32.1562 55.5952 31.1332C56.6693 30.1102 57.2727 28.7226 57.2727 27.2758C57.2727 25.829 56.6693 24.4415 55.5952 23.4184C54.5212 22.3954 53.0644 21.8207 51.5455 21.8207H45.8182V19.0931C45.8182 15.4761 44.3097 12.0072 41.6245 9.44962C38.9393 6.89201 35.2974 5.45516 31.5 5.45516C24.3409 5.45516 18.4705 10.4194 17.3536 16.8837C16.4086 16.5564 15.3777 16.3655 14.3182 16.3655C12.0397 16.3655 9.8546 17.2276 8.24349 18.7622C6.63239 20.2967 5.72728 22.378 5.72728 24.5482C5.72728 26.8667 6.72955 28.9396 8.33319 30.4398C9.36409 31.5036 9.33546 33.1674 8.24728 34.2039C7.98235 34.4567 7.66767 34.6573 7.32125 34.7942C6.97482 34.9311 6.60346 35.0015 6.22841 35.0015C5.85337 35.0015 5.482 34.9311 5.13558 34.7942C4.78916 34.6573 4.47447 34.4567 4.20955 34.2039C2.87407 32.9384 1.8146 31.4337 1.09215 29.7766C0.369695 28.1194 -0.0014777 26.3426 4.42121e-06 24.5482ZM37.3132 52.9969C37.5995 54.0607 38.6591 54.6607 39.8332 54.388L44.3864 53.1878L43.1264 57.5247C42.84 58.643 43.47 59.6522 44.5868 59.925C45.675 60.225 46.8205 59.5977 47.1068 58.5339L48.2809 54.2516L51.6314 57.4156C52.4045 58.1793 53.7505 58.1793 54.5523 57.4156C55.3541 56.6519 55.3541 55.3699 54.5523 54.6335L51.2305 51.4422L55.7264 50.3239C56.8432 50.0511 57.5018 48.9601 57.1868 47.9236C56.9005 46.8599 55.8409 46.2598 54.6668 46.5325L50.1136 47.7327L51.3736 43.3958C51.66 42.2775 51.03 41.2683 49.9132 40.9956C49.6518 40.9258 49.3784 40.9066 49.1091 40.9391C48.8397 40.9716 48.58 41.0551 48.3451 41.1848C48.1102 41.3144 47.905 41.4876 47.7415 41.694C47.578 41.9004 47.4596 42.1359 47.3932 42.3866L46.2191 46.6689L42.8686 43.5049C42.4803 43.1378 41.9553 42.9318 41.4082 42.9318C40.861 42.9318 40.3361 43.1378 39.9477 43.5049C39.1459 44.2959 39.1459 45.5506 39.9477 46.2871L43.2695 49.4783L38.7736 50.5966C37.6568 50.8694 36.9982 51.9604 37.3132 52.9969Z" fill="white"/>
</svg>
