<svg width="52" height="60" viewBox="0 0 52 60" fill="none" xmlns="http://www.w3.org/2000/svg">
<path d="M26.015 15C29.9986 15 33.8191 16.5804 36.6359 19.3934C39.4528 22.2064 41.0352 26.0218 41.0352 30C41.0352 33.9782 39.4528 37.7936 36.6359 40.6066C33.8191 43.4196 29.9986 45 26.015 45C22.0314 45 18.211 43.4196 15.3941 40.6066C12.5773 37.7936 10.9948 33.9782 10.9948 30C10.9948 26.0218 12.5773 22.2064 15.3941 19.3934C18.211 16.5804 22.0314 15 26.015 15ZM26.015 21C23.6249 21 21.3326 21.9482 19.6425 23.636C17.9524 25.3239 17.0029 27.6131 17.0029 30C17.0029 32.3869 17.9524 34.6761 19.6425 36.364C21.3326 38.0518 23.6249 39 26.015 39C28.4052 39 30.6975 38.0518 32.3876 36.364C34.0777 34.6761 35.0272 32.3869 35.0272 30C35.0272 27.6131 34.0777 25.3239 32.3876 23.636C30.6975 21.9482 28.4052 21 26.015 21ZM26.015 0L33.1947 10.26C30.9717 9.45 28.5384 9 26.015 9C23.4916 9 21.0583 9.45 18.8354 10.26L26.015 0ZM0 15L12.4968 13.95C10.6324 15.5227 9.04789 17.3992 7.81051 19.5C6.48874 21.72 5.73772 24 5.31716 26.37L0 15ZM0.0600808 45L5.3472 33.69C6.23026 38.5275 8.75512 42.9136 12.4968 46.11L0.0600808 45ZM52 15L46.6828 26.37C45.8321 21.5123 43.302 17.1065 39.5332 13.92L52 15ZM51.97 45L39.5332 46.08C41.3056 44.55 42.8978 42.66 44.1595 40.5C45.4212 38.31 46.2322 36 46.6528 33.63L51.97 45ZM26.015 60L18.7753 49.68C20.9983 50.49 23.4315 51 26.015 51C28.4783 51 30.9116 50.49 33.1346 49.68L26.015 60Z" fill="white"/>
</svg>
