<svg width="24" height="20" viewBox="0 0 24 20" fill="none" xmlns="http://www.w3.org/2000/svg">
<path d="M16 6.50001C17.333 8.27801 17.333 11.722 16 13.5M19 3.00001C22.988 6.80801 23.012 13.217 19 17M2 12.959V7.04001C2 6.46601 2.448 6.00001 3 6.00001H6.586C6.71833 5.99954 6.8492 5.97228 6.97071 5.91986C7.09222 5.86744 7.20185 5.79095 7.293 5.69501L10.293 2.30701C10.923 1.65101 12 2.11601 12 3.04301V16.957C12 17.891 10.91 18.352 10.284 17.683L7.294 14.314C7.20259 14.2153 7.09185 14.1365 6.96867 14.0825C6.84549 14.0285 6.71251 14.0004 6.578 14H3C2.448 14 2 13.534 2 12.959Z" stroke="white" stroke-width="3" stroke-linecap="round" stroke-linejoin="round"/>
</svg>
